<?xml version="1.0" encoding="utf-8"?>
<svg xmlns="http://www.w3.org/2000/svg" xmlns:xlink="http://www.w3.org/1999/xlink" style="margin: auto; background: rgb(255, 255, 255); display: block; shape-rendering: auto;" width="204px" height="204px" viewBox="0 0 100 100" preserveAspectRatio="xMidYMid">
<g transform="rotate(0 50 50)">
  <rect x="47" y="7.5" rx="3" ry="4.2" width="6" height="21" fill="#fe718d">
    <animate attributeName="opacity" values="1;0" keyTimes="0;1" dur="0.6097560975609756s" begin="-0.5738880918220947s" repeatCount="indefinite"></animate>
  </rect>
</g><g transform="rotate(21.176470588235293 50 50)">
  <rect x="47" y="7.5" rx="3" ry="4.2" width="6" height="21" fill="#f47e60">
    <animate attributeName="opacity" values="1;0" keyTimes="0;1" dur="0.6097560975609756s" begin="-0.5380200860832137s" repeatCount="indefinite"></animate>
  </rect>
</g><g transform="rotate(42.35294117647059 50 50)">
  <rect x="47" y="7.5" rx="3" ry="4.2" width="6" height="21" fill="#f8b26a">
    <animate attributeName="opacity" values="1;0" keyTimes="0;1" dur="0.6097560975609756s" begin="-0.5021520803443328s" repeatCount="indefinite"></animate>
  </rect>
</g><g transform="rotate(63.529411764705884 50 50)">
  <rect x="47" y="7.5" rx="3" ry="4.2" width="6" height="21" fill="#abbd81">
    <animate attributeName="opacity" values="1;0" keyTimes="0;1" dur="0.6097560975609756s" begin="-0.4662840746054519s" repeatCount="indefinite"></animate>
  </rect>
</g><g transform="rotate(84.70588235294117 50 50)">
  <rect x="47" y="7.5" rx="3" ry="4.2" width="6" height="21" fill="#849b87">
    <animate attributeName="opacity" values="1;0" keyTimes="0;1" dur="0.6097560975609756s" begin="-0.43041606886657097s" repeatCount="indefinite"></animate>
  </rect>
</g><g transform="rotate(105.88235294117646 50 50)">
  <rect x="47" y="7.5" rx="3" ry="4.2" width="6" height="21" fill="#6492ac">
    <animate attributeName="opacity" values="1;0" keyTimes="0;1" dur="0.6097560975609756s" begin="-0.3945480631276901s" repeatCount="indefinite"></animate>
  </rect>
</g><g transform="rotate(127.05882352941177 50 50)">
  <rect x="47" y="7.5" rx="3" ry="4.2" width="6" height="21" fill="#637cb5">
    <animate attributeName="opacity" values="1;0" keyTimes="0;1" dur="0.6097560975609756s" begin="-0.35868005738880915s" repeatCount="indefinite"></animate>
  </rect>
</g><g transform="rotate(148.23529411764707 50 50)">
  <rect x="47" y="7.5" rx="3" ry="4.2" width="6" height="21" fill="#6a63b6">
    <animate attributeName="opacity" values="1;0" keyTimes="0;1" dur="0.6097560975609756s" begin="-0.3228120516499282s" repeatCount="indefinite"></animate>
  </rect>
</g><g transform="rotate(169.41176470588235 50 50)">
  <rect x="47" y="7.5" rx="3" ry="4.2" width="6" height="21" fill="#fe718d">
    <animate attributeName="opacity" values="1;0" keyTimes="0;1" dur="0.6097560975609756s" begin="-0.28694404591104733s" repeatCount="indefinite"></animate>
  </rect>
</g><g transform="rotate(190.58823529411765 50 50)">
  <rect x="47" y="7.5" rx="3" ry="4.2" width="6" height="21" fill="#f47e60">
    <animate attributeName="opacity" values="1;0" keyTimes="0;1" dur="0.6097560975609756s" begin="-0.2510760401721664s" repeatCount="indefinite"></animate>
  </rect>
</g><g transform="rotate(211.76470588235293 50 50)">
  <rect x="47" y="7.5" rx="3" ry="4.2" width="6" height="21" fill="#f8b26a">
    <animate attributeName="opacity" values="1;0" keyTimes="0;1" dur="0.6097560975609756s" begin="-0.21520803443328548s" repeatCount="indefinite"></animate>
  </rect>
</g><g transform="rotate(232.94117647058823 50 50)">
  <rect x="47" y="7.5" rx="3" ry="4.2" width="6" height="21" fill="#abbd81">
    <animate attributeName="opacity" values="1;0" keyTimes="0;1" dur="0.6097560975609756s" begin="-0.17934002869440457s" repeatCount="indefinite"></animate>
  </rect>
</g><g transform="rotate(254.11764705882354 50 50)">
  <rect x="47" y="7.5" rx="3" ry="4.2" width="6" height="21" fill="#849b87">
    <animate attributeName="opacity" values="1;0" keyTimes="0;1" dur="0.6097560975609756s" begin="-0.14347202295552366s" repeatCount="indefinite"></animate>
  </rect>
</g><g transform="rotate(275.29411764705884 50 50)">
  <rect x="47" y="7.5" rx="3" ry="4.2" width="6" height="21" fill="#6492ac">
    <animate attributeName="opacity" values="1;0" keyTimes="0;1" dur="0.6097560975609756s" begin="-0.10760401721664274s" repeatCount="indefinite"></animate>
  </rect>
</g><g transform="rotate(296.47058823529414 50 50)">
  <rect x="47" y="7.5" rx="3" ry="4.2" width="6" height="21" fill="#637cb5">
    <animate attributeName="opacity" values="1;0" keyTimes="0;1" dur="0.6097560975609756s" begin="-0.07173601147776183s" repeatCount="indefinite"></animate>
  </rect>
</g><g transform="rotate(317.6470588235294 50 50)">
  <rect x="47" y="7.5" rx="3" ry="4.2" width="6" height="21" fill="#6a63b6">
    <animate attributeName="opacity" values="1;0" keyTimes="0;1" dur="0.6097560975609756s" begin="-0.035868005738880916s" repeatCount="indefinite"></animate>
  </rect>
</g><g transform="rotate(338.8235294117647 50 50)">
  <rect x="47" y="7.5" rx="3" ry="4.2" width="6" height="21" fill="#fe718d">
    <animate attributeName="opacity" values="1;0" keyTimes="0;1" dur="0.6097560975609756s" begin="0s" repeatCount="indefinite"></animate>
  </rect>
</g>
<!-- [ldio] generated by https://loading.io/ --></svg>